<svg width="20" height="20" viewBox="0 0 20 20" fill="none" xmlns="http://www.w3.org/2000/svg">
<path fill-rule="evenodd" clip-rule="evenodd" d="M11.125 10C11.125 10.6213 10.6213 11.125 10 11.125C9.37868 11.125 8.875 10.6213 8.875 10C8.875 9.37868 9.37868 8.875 10 8.875C10.6213 8.875 11.125 9.37868 11.125 10V10ZM5.875 8.875C5.25368 8.875 4.75 9.37868 4.75 10C4.75 10.6213 5.25368 11.125 5.875 11.125C6.49632 11.125 7 10.6213 7 10C7 9.37868 6.49632 8.875 5.875 8.875V8.875ZM14.125 8.875C13.5037 8.875 13 9.37868 13 10C13 10.6213 13.5037 11.125 14.125 11.125C14.7463 11.125 15.25 10.6213 15.25 10C15.25 9.37868 14.7463 8.875 14.125 8.875V8.875ZM19.75 10C19.7507 13.424 17.9553 16.5975 15.02 18.3605C12.0847 20.1234 8.43978 20.2174 5.4175 18.6081L2.22531 19.6722C1.68626 19.852 1.09191 19.7117 0.69011 19.3099C0.288308 18.9081 0.148045 18.3137 0.327812 17.7747L1.39188 14.5825C-0.51326 11.0006 -0.0012579 6.61332 2.67747 3.56638C5.35619 0.519438 9.64177 -0.550316 13.4382 0.880322C17.2346 2.31096 19.7483 5.94298 19.75 10V10ZM18.25 10C18.249 6.53154 16.0787 3.43408 12.819 2.24891C9.55932 1.06374 5.90643 2.04399 3.67801 4.70188C1.44959 7.35977 1.12157 11.1276 2.85719 14.1306C2.9647 14.3167 2.98723 14.5399 2.91906 14.7437L1.75 18.25L5.25625 17.0809C5.33262 17.0549 5.41275 17.0416 5.49344 17.0416C5.62516 17.0418 5.7545 17.0767 5.86844 17.1428C8.42111 18.6197 11.568 18.6217 14.1225 17.148C16.6771 15.6743 18.2507 12.9491 18.25 10V10Z" fill="#0D141C"/>
</svg>
