<svg width="24" height="16" viewBox="0 0 24 16" fill="none" xmlns="http://www.w3.org/2000/svg">
<path fill-rule="evenodd" clip-rule="evenodd" d="M10.9922 10.805C13.0561 9.43099 13.9769 6.86767 13.2592 4.49441C12.5414 2.12114 10.3544 0.497718 7.875 0.497718C5.39558 0.497718 3.20857 2.12114 2.49084 4.49441C1.7731 6.86767 2.69393 9.43099 4.75781 10.805C2.93952 11.4752 1.38666 12.7153 0.330938 14.3403C0.179932 14.5647 0.161484 14.8531 0.28266 15.095C0.403836 15.3368 0.645857 15.4947 0.916031 15.5081C1.18621 15.5215 1.44266 15.3884 1.58719 15.1597C2.97076 13.0317 5.33677 11.7479 7.875 11.7479C10.4132 11.7479 12.7792 13.0317 14.1628 15.1597C14.3917 15.4999 14.8514 15.5932 15.1948 15.3692C15.5382 15.1452 15.6381 14.6869 15.4191 14.3403C14.3633 12.7153 12.8105 11.4752 10.9922 10.805V10.805ZM3.75 6.125C3.75 3.84683 5.59683 2 7.875 2C10.1532 2 12 3.84683 12 6.125C12 8.40317 10.1532 10.25 7.875 10.25C5.5979 10.2474 3.75258 8.4021 3.75 6.125V6.125ZM23.4506 15.3781C23.1037 15.6043 22.6391 15.5066 22.4128 15.1597C21.0308 13.0303 18.6636 11.7466 16.125 11.75C15.7108 11.75 15.375 11.4142 15.375 11C15.375 10.5858 15.7108 10.25 16.125 10.25C17.7863 10.2484 19.2846 9.25042 19.9261 7.71798C20.5677 6.18554 20.2273 4.4178 19.0626 3.23312C17.898 2.04844 16.1363 1.67805 14.5931 2.29344C14.3427 2.40171 14.0531 2.36541 13.8372 2.19864C13.6212 2.03188 13.5128 1.76096 13.5542 1.49125C13.5956 1.22154 13.7802 0.995581 14.0363 0.90125C16.7109 -0.165433 19.7592 0.960006 21.099 3.50883C22.4388 6.05765 21.6374 9.2067 19.2422 10.805C21.0605 11.4752 22.6133 12.7153 23.6691 14.3403C23.8953 14.6872 23.7975 15.1518 23.4506 15.3781V15.3781Z" fill="#0D141C"/>
</svg>
