<svg width="18" height="19" viewBox="0 0 18 19" fill="none" xmlns="http://www.w3.org/2000/svg">
<path fill-rule="evenodd" clip-rule="evenodd" d="M17.5153 7.72844L10.0153 0.652188C10.0116 0.648989 10.0082 0.645543 10.005 0.641875C9.43281 0.121501 8.55876 0.121501 7.98656 0.641875L7.97625 0.652188L0.484688 7.72844C0.17573 8.01254 -6.38024e-05 8.41309 0 8.83281V17.5C0 18.3284 0.671573 19 1.5 19H6C6.82843 19 7.5 18.3284 7.5 17.5V13H10.5V17.5C10.5 18.3284 11.1716 19 12 19H16.5C17.3284 19 18 18.3284 18 17.5V8.83281C18.0001 8.41309 17.8243 8.01254 17.5153 7.72844V7.72844ZM16.5 17.5H12V13C12 12.1716 11.3284 11.5 10.5 11.5H7.5C6.67157 11.5 6 12.1716 6 13V17.5H1.5V8.83281L1.51031 8.82344L9 1.75L16.4906 8.82156L16.5009 8.83094L16.5 17.5Z" fill="#0D141C"/>
</svg>
