<svg width="20" height="18" viewBox="0 0 20 18" fill="none" xmlns="http://www.w3.org/2000/svg">
<path fill-rule="evenodd" clip-rule="evenodd" d="M19 5.25H14.4438L15.2378 0.884063C15.3042 0.480197 15.0345 0.0976961 14.6318 0.0245264C14.2291 -0.0486433 13.8421 0.214539 13.7622 0.615937L12.9184 5.25H8.44375L9.23781 0.884063C9.30418 0.480197 9.03451 0.0976961 8.63182 0.0245264C8.22913 -0.0486433 7.84214 0.214539 7.76219 0.615937L6.91938 5.25H2.5C2.08579 5.25 1.75 5.58579 1.75 6C1.75 6.41421 2.08579 6.75 2.5 6.75H6.64656L5.82812 11.25H1C0.585786 11.25 0.25 11.5858 0.25 12C0.25 12.4142 0.585786 12.75 1 12.75H5.55625L4.76219 17.1159C4.68821 17.5234 4.95849 17.9137 5.36594 17.9878C5.41015 17.996 5.45503 18.0001 5.5 18C5.86211 17.9995 6.17215 17.7403 6.23687 17.3841L7.08062 12.75H11.5562L10.7622 17.1159C10.6882 17.5234 10.9585 17.9137 11.3659 17.9878C11.4102 17.996 11.455 18.0001 11.5 18C11.8621 17.9995 12.1721 17.7403 12.2369 17.3841L13.0806 12.75H17.5C17.9142 12.75 18.25 12.4142 18.25 12C18.25 11.5858 17.9142 11.25 17.5 11.25H13.3534L14.1719 6.75H19C19.4142 6.75 19.75 6.41421 19.75 6C19.75 5.58579 19.4142 5.25 19 5.25V5.25ZM11.8281 11.25H7.35344L8.17188 6.75H12.6466L11.8281 11.25Z" fill="#0D141C"/>
</svg>
