<svg width="23" height="23" viewBox="0 0 23 23" fill="none" xmlns="http://www.w3.org/2000/svg">
<g clip-path="url(#clip0_33_12)">
<path d="M11.25 0C5.04375 0 0 5.04375 0 11.25C0 17.4562 5.04375 22.5 11.25 22.5C17.4562 22.5 22.5 17.4562 22.5 11.25C22.5 5.04375 17.4562 0 11.25 0ZM11.25 20.625C6.075 20.625 1.875 16.425 1.875 11.25C1.875 6.075 6.075 1.875 11.25 1.875C16.425 1.875 20.625 6.075 20.625 11.25C20.625 16.425 16.425 20.625 11.25 20.625Z" fill="#C6E5FF"/>
<path d="M12.0562 4.78128C10.2562 4.33128 8.24994 5.47503 7.70619 7.23753C7.53744 7.74378 7.81869 8.26878 8.30619 8.41878C8.79369 8.56878 9.31869 8.30628 9.48744 7.80003C9.74994 6.97503 10.7624 6.39378 11.6249 6.60003C12.4687 6.80628 13.1062 7.80003 12.9374 8.66253C12.7874 9.52503 11.8687 10.2188 10.9874 10.1063C10.7249 10.0688 10.4437 10.1625 10.2562 10.3313C10.0499 10.5188 9.93744 10.7625 9.93744 11.0438L9.91869 13.9688C9.91869 14.4938 10.3312 14.9063 10.8562 14.9063C11.3812 14.9063 11.7937 14.4938 11.7937 13.9688L11.8124 11.925C13.2562 11.6438 14.5312 10.4625 14.7937 8.98128C15.1312 7.16253 13.8749 5.23128 12.0562 4.78128Z" fill="#C6E5FF"/>
<path d="M10.8939 15.7313H10.8751C10.3689 15.7313 9.95637 16.1625 9.93762 16.6688C9.93762 16.6875 9.93762 16.8563 9.93762 16.875C9.93762 17.3813 10.3501 17.7188 10.8564 17.7375H10.8751C11.3814 17.7375 11.7939 17.2688 11.8126 16.7625C11.8126 16.7438 11.8126 16.6313 11.8126 16.6125C11.7939 16.1063 11.4001 15.7313 10.8939 15.7313Z" fill="#C6E5FF"/>
</g>
<defs>
<clipPath id="clip0_33_12">
<rect width="22.5" height="22.5" fill="white"/>
</clipPath>
</defs>
</svg>
