<svg width="25" height="25" viewBox="0 0 25 25" fill="none" xmlns="http://www.w3.org/2000/svg">
<path d="M12.7605 2.08332C11.2781 2.08295 9.81329 2.40512 8.46782 3.02749C7.12236 3.64986 5.92841 4.55752 4.96883 5.68748L3.55216 4.42707C3.40194 4.29531 3.21698 4.20954 3.01936 4.17999C2.82173 4.15044 2.61978 4.17835 2.43758 4.2604C2.25482 4.34255 2.09963 4.47568 1.99063 4.64381C1.88162 4.81194 1.82342 5.00794 1.823 5.20832V9.37498C1.823 9.65125 1.93274 9.9162 2.1281 10.1116C2.32345 10.3069 2.5884 10.4167 2.86466 10.4167H7.55216C7.762 10.416 7.96675 10.3521 8.13961 10.2331C8.31247 10.1141 8.44537 9.94575 8.52091 9.74998C8.59771 9.5516 8.61192 9.33445 8.56164 9.12775C8.51136 8.92104 8.399 8.73468 8.23966 8.59373L6.52091 7.06248C7.28977 6.15473 8.24719 5.42542 9.32656 4.92531C10.4059 4.42521 11.5813 4.16631 12.7709 4.16665C14.2986 4.1664 15.7969 4.5861 17.1022 5.37986C18.4074 6.17362 19.4694 7.31091 20.172 8.66743C20.8746 10.0239 21.1908 11.5475 21.086 13.0716C20.9812 14.5956 20.4595 16.0616 19.5779 17.3092C18.6962 18.5568 17.4886 19.538 16.087 20.1457C14.6854 20.7534 13.1437 20.964 11.6305 20.7547C10.1172 20.5454 8.69059 19.9241 7.50655 18.9588C6.32251 17.9935 5.42661 16.7213 4.91675 15.2812C4.82558 15.0202 4.63444 14.806 4.38536 14.6859C4.13629 14.5657 3.8497 14.5494 3.58862 14.6406C3.32755 14.7318 3.11339 14.9229 2.99325 15.172C2.87311 15.4211 2.85683 15.7077 2.948 15.9687C3.58412 17.77 4.70331 19.3616 6.18317 20.5696C7.66302 21.7776 9.44656 22.5553 11.3387 22.8178C13.2309 23.0803 15.1588 22.8175 16.9116 22.058C18.6644 21.2985 20.1746 20.0717 21.277 18.5116C22.3795 16.9516 23.0317 15.1184 23.1624 13.2126C23.2931 11.3068 22.8972 9.40175 22.018 7.70582C21.1388 6.00989 19.8102 4.58837 18.1775 3.59674C16.5447 2.60511 14.6708 2.08155 12.7605 2.08332Z" fill="#C6E5FF"/>
<path d="M16.6666 16.6667C16.4412 16.6667 16.2219 16.5936 16.0416 16.4584L11.8749 13.3334C11.7455 13.2363 11.6405 13.1105 11.5682 12.9659C11.4959 12.8212 11.4583 12.6617 11.4583 12.5V8.33335C11.4583 8.05709 11.568 7.79213 11.7633 7.59678C11.9587 7.40143 12.2237 7.29169 12.4999 7.29169C12.7762 7.29169 13.0411 7.40143 13.2365 7.59678C13.4318 7.79213 13.5416 8.05709 13.5416 8.33335V11.9792L17.2916 14.7917C17.401 14.8738 17.4932 14.9766 17.5629 15.0943C17.6326 15.212 17.6784 15.3423 17.6978 15.4777C17.7171 15.6131 17.7096 15.751 17.6757 15.8835C17.6417 16.0161 17.582 16.1406 17.4999 16.25C17.4029 16.3794 17.2771 16.4844 17.1324 16.5567C16.9878 16.629 16.8283 16.6667 16.6666 16.6667Z" fill="#C6E5FF"/>
</svg>
