<svg width="35" height="35" viewBox="0 0 35 35" fill="none" xmlns="http://www.w3.org/2000/svg">
<path d="M17.2197 32.2656C13.2039 32.2656 9.42972 30.7016 6.59074 27.8603C1.95 23.2186 0.848341 16.1792 3.84839 10.3462C4.12005 9.81875 4.76644 9.61143 5.29472 9.88213C5.82193 10.1528 6.03024 10.8006 5.75858 11.3291C3.18696 16.3296 4.13078 22.3624 8.10901 26.3413C10.5421 28.7766 13.7773 30.1172 17.2197 30.1172C20.6611 30.1172 23.8974 28.7766 26.3305 26.3413C28.7636 23.9061 30.1047 20.6694 30.1047 17.2266C30.1047 13.7826 28.7647 10.546 26.3305 8.11182C23.8963 5.67764 20.6622 4.33594 17.2197 4.33594C13.7773 4.33594 10.5421 5.67764 8.10901 8.11182C7.68918 8.53184 7.01057 8.53184 6.59074 8.11182C6.1709 7.6918 6.1709 7.01289 6.59074 6.59287C9.42972 3.75264 13.2039 2.1875 17.2197 2.1875C21.2356 2.1875 25.0109 3.75264 27.8488 6.59287C30.6888 9.43311 32.2522 13.209 32.2522 17.2266C32.2522 21.2431 30.6888 25.02 27.8488 27.8603C25.0109 30.7016 21.2356 32.2656 17.2197 32.2656Z" fill="#90CAF9"/>
<path d="M17.5 24.0625C16.8963 24.0625 16.4062 23.5736 16.4062 22.9688V12.0312C16.4062 11.4275 16.8963 10.9375 17.5 10.9375C18.1037 10.9375 18.5938 11.4275 18.5938 12.0312V22.9688C18.5938 23.5736 18.1037 24.0625 17.5 24.0625Z" fill="#90CAF9"/>
<path d="M22.9688 18.5938H12.0312C11.4275 18.5938 10.9375 18.1037 10.9375 17.5C10.9375 16.8963 11.4275 16.4062 12.0312 16.4062H22.9688C23.5736 16.4062 24.0625 16.8963 24.0625 17.5C24.0625 18.1037 23.5736 18.5938 22.9688 18.5938Z" fill="#90CAF9"/>
</svg>
