<svg width="18" height="17" viewBox="0 0 18 17" fill="none" xmlns="http://www.w3.org/2000/svg">
<path fill-rule="evenodd" clip-rule="evenodd" d="M16.9422 15.5578L13.0305 11.6469C15.3858 8.8192 15.1004 4.63911 12.3826 2.15779C9.66485 -0.323531 5.47612 -0.228335 2.87389 2.37389C0.271665 4.97612 0.176469 9.16485 2.65779 11.8826C5.13911 14.6004 9.3192 14.8858 12.1469 12.5305L16.0578 16.4422C16.302 16.6864 16.698 16.6864 16.9422 16.4422C17.1864 16.198 17.1864 15.802 16.9422 15.5578V15.5578ZM2.125 7.25C2.125 4.1434 4.6434 1.625 7.75 1.625C10.8566 1.625 13.375 4.1434 13.375 7.25C13.375 10.3566 10.8566 12.875 7.75 12.875C4.64483 12.8716 2.12844 10.3552 2.125 7.25V7.25Z" fill="#0D141C"/>
</svg>
