<svg width="30" height="20" viewBox="0 0 30 20" fill="none" xmlns="http://www.w3.org/2000/svg">
<path d="M15 16.25L2.8125 3.75H27.1875L15 16.25Z" stroke="#120154" stroke-width="2" stroke-miterlimit="10" stroke-linejoin="round"/>
<path d="M12.8855 9.03602C13.4811 9.39855 14.0274 9.84084 14.226 10.5112C14.3097 10.7938 14.3606 11.0694 14.3606 11.3658C14.3606 11.6819 14.466 11.9717 14.466 12.2907C14.466 12.6495 14.5434 12.9917 14.6006 13.3444C14.6237 13.4866 14.5935 14.1357 14.7324 14.2283C14.8465 14.3044 15.3397 13.1472 15.388 13.04C15.7516 12.2318 16.2469 11.4937 16.6846 10.7277C16.8105 10.5074 16.8877 10.2081 17.0592 10.0194C17.1996 9.86504 17.0012 10.5975 17.0007 10.599C16.8128 11.0751 16.5263 11.4896 16.2163 11.8926C16.0176 12.151 15.8134 12.3263 16.1519 11.9395C16.6593 11.3596 17.3083 10.8925 17.908 10.4146C18.2941 10.1069 18.9256 9.76827 19.1958 9.34041C19.3205 9.14295 18.7947 9.58429 18.6192 9.73846C18.3123 10.0082 18.0242 10.3269 17.7909 10.6634C17.2073 11.5048 19.2778 9.24461 19.91 8.43894C20.1067 8.18817 20.3034 7.83411 20.589 7.70429C20.8862 7.56919 21.1535 7.25554 21.4144 7.06331C21.8373 6.75169 22.2737 6.45981 22.6612 6.1033C23.0789 5.719 23.3008 5.14384 23.8437 4.9267" stroke="#120154" stroke-width="3" stroke-linecap="round"/>
<path d="M14.6768 9.6682C15.847 8.89756 17.11 8.28686 18.3002 7.54915C18.8839 7.18739 19.47 6.81897 20.0329 6.42523C20.2065 6.30386 20.4235 6.16597 20.5539 5.99206C21.0336 5.35245 21.5767 4.82888 22.2632 4.39984" stroke="#120154" stroke-width="3" stroke-linecap="round"/>
<path d="M13.6229 8.35111C13.6019 8.20393 13.8421 8.04245 13.9331 7.97062C14.4413 7.56982 15.0516 7.31413 15.6336 7.0428C16.3194 6.72313 16.9697 6.4566 17.5917 6.0301C17.7106 5.94858 17.7783 5.81964 17.902 5.7462C18.0838 5.63824 18.2527 5.54903 18.4171 5.41254C18.7856 5.10663 19.2857 5.0235 19.7342 4.87399" stroke="#120154" stroke-width="3" stroke-linecap="round"/>
<path d="M13.5703 12.7765C13.0361 12.7765 12.4847 12.1103 12.1303 11.7638C11.5958 11.2414 11.0759 10.69 10.6142 10.1014C9.85028 9.12762 8.9895 8.19573 8.11463 7.32086C7.97058 7.1768 7.75087 7.10463 7.57609 7.00476C7.24221 6.81397 6.92721 6.56071 6.62779 6.31987C6.30076 6.05683 5.98052 5.7786 5.72046 5.45352" stroke="#120154" stroke-width="3" stroke-linecap="round"/>
<path d="M6.77417 5.24278C7.24292 5.24278 7.7084 5.23133 8.17321 5.30424C8.91125 5.42001 9.64743 5.55965 10.3801 5.70522C10.8148 5.79161 11.3106 5.84286 11.7264 6.00669C12.1931 6.19052 12.632 6.67828 12.9791 7.02231C13.0304 7.07312 13.3997 7.35233 13.3391 7.46134C13.247 7.62716 12.9378 7.73558 12.7801 7.82428" stroke="#120154" stroke-width="3" stroke-linecap="round"/>
<path d="M8.98682 6.03305C9.96679 6.45913 11.0118 7.08033 11.6912 7.92381C12.0409 8.35782 12.5216 8.63184 12.8854 9.03601" stroke="#120154" stroke-width="3" stroke-linecap="round"/>
<path d="M17.2581 4.6106C16.3697 4.62591 15.5087 4.87401 14.624 4.87401C14.0093 4.87401 13.3947 4.87401 12.78 4.87401" stroke="#120154" stroke-width="3" stroke-linecap="round"/>
</svg>
