<svg width="512" height="512" viewBox="0 0 512 512" fill="none" xmlns="http://www.w3.org/2000/svg">
<g clip-path="url(#clip0_103_5)">
<rect width="512" height="512" rx="256" fill="white"/>
<path fill-rule="evenodd" clip-rule="evenodd" d="M296.133 354.174C346.018 348.283 399.075 330.145 399.075 243.982C399.075 219.492 390.451 199.534 376.405 184.113C378.671 178.223 385.92 155.999 373.671 125.166C373.671 125.166 355.532 119.268 312.912 147.835C294.773 142.852 274.822 139.672 256.23 139.672C237.177 139.672 217.219 142.852 199.533 147.835C156.451 119.268 138.313 125.166 138.313 125.166C126.072 155.999 133.33 178.223 135.595 184.113C121.534 199.533 112.918 219.492 112.918 243.982C112.918 330.145 165.975 348.283 215.86 354.174C209.516 359.626 203.619 370.047 201.353 384.561C188.651 389.999 155.545 400.434 135.595 365.969C135.595 365.969 123.8 344.659 101.583 343.3C101.583 343.3 79.359 342.847 99.77 356.892C99.77 356.892 114.73 363.704 124.713 389.545C124.713 389.545 138.313 432.634 200.892 419.025V457.568C200.892 463.474 196.362 470.27 185.027 468.458C96.139 438.977 32.2 354.626 32.2 255.77C32.2 131.963 132.416 31.748 256.23 31.748C379.577 31.748 480.253 131.964 479.8 255.77C479.8 354.626 415.854 438.524 326.972 468.458C315.63 470.724 311.099 463.928 311.099 457.568V395.45C311.1 374.577 304.288 360.985 296.133 354.174ZM512 256.23C512 114.73 397.263 0 256.23 0C114.73 0 0 114.73 0 256.23C0 397.263 114.73 512 256.23 512C397.263 512 512 397.263 512 256.23Z" fill="black"/>
</g>
<defs>
<clipPath id="clip0_103_5">
<rect width="512" height="512" rx="256" fill="white"/>
</clipPath>
</defs>
</svg>
