<svg width="35" height="35" viewBox="0 0 35 35" fill="none" xmlns="http://www.w3.org/2000/svg">
<rect x="1" y="1" width="33" height="33" rx="16.5" fill="white" stroke="#2076D2" stroke-width="2"/>
<path d="M11.7071 10.2929C11.3166 9.90237 10.6834 9.90237 10.2929 10.2929C9.90237 10.6834 9.90237 11.3166 10.2929 11.7071L16.0676 17.4818L10.293 23.2565C9.90243 23.647 9.90243 24.2802 10.293 24.6707C10.6835 25.0612 11.3166 25.0612 11.7072 24.6707L17.4818 18.896L23.2565 24.6707C23.647 25.0612 24.2802 25.0612 24.6707 24.6707C25.0612 24.2802 25.0612 23.647 24.6707 23.2565L18.896 17.4818L24.6708 11.7071C25.0613 11.3166 25.0613 10.6834 24.6708 10.2929C24.2803 9.90237 23.6471 9.90237 23.2566 10.2929L17.4818 16.0676L11.7071 10.2929Z" fill="#2076D2"/>
</svg>
