<svg width="15" height="15" viewBox="0 0 15 15" fill="none" xmlns="http://www.w3.org/2000/svg">
<path d="M1.7071 0.292897C1.3166 -0.0976325 0.683398 -0.0976325 0.292897 0.292897C-0.0976325 0.683398 -0.0976325 1.3166 0.292897 1.7071L6.0676 7.4818L0.292998 13.2565C-0.0975724 13.647 -0.0975724 14.2802 0.292998 14.6707C0.683498 15.0612 1.3166 15.0612 1.7072 14.6707L7.4818 8.896L13.2565 14.6707C13.647 15.0612 14.2802 15.0612 14.6707 14.6707C15.0612 14.2802 15.0612 13.647 14.6707 13.2565L8.896 7.4818L14.6708 1.7071C15.0613 1.3166 15.0613 0.683398 14.6708 0.292897C14.2803 -0.0976325 13.6471 -0.0976325 13.2566 0.292897L7.4818 6.0676L1.7071 0.292897Z" fill="#2076D2"/>
</svg>
