<svg width="15" height="18" viewBox="0 0 15 18" fill="none" xmlns="http://www.w3.org/2000/svg">
<path fill-rule="evenodd" clip-rule="evenodd" d="M14.3797 8.55781C14.497 8.67504 14.563 8.83412 14.563 9C14.563 9.16588 14.497 9.32496 14.3797 9.44219L7.96953 15.8484C6.26068 17.5571 3.49027 17.5569 1.78164 15.848C0.0730098 14.1392 0.0731846 11.3688 1.78203 9.66016L9.53672 1.79141C10.7567 0.570123 12.7357 0.569074 13.957 1.78906C15.1783 3.00905 15.1794 4.98809 13.9594 6.20937L6.20312 14.0781C5.46962 14.8116 4.28038 14.8116 3.54688 14.0781C2.81337 13.3446 2.81337 12.1554 3.54688 11.4219L10.0547 4.81094C10.2099 4.64538 10.4426 4.57695 10.6627 4.63215C10.8828 4.68735 11.0557 4.85752 11.1144 5.07671C11.1731 5.29591 11.1084 5.52969 10.9453 5.6875L4.43672 12.3055C4.19164 12.5486 4.19007 12.9444 4.4332 13.1895C4.67634 13.4345 5.07211 13.4361 5.31719 13.193L13.0727 5.32812C13.8062 4.59613 13.8074 3.40811 13.0754 2.67461C12.3434 1.94111 11.1554 1.93988 10.4219 2.67188L2.66875 10.5375C1.44725 11.7571 1.44568 13.7359 2.66523 14.9574C3.88479 16.1789 5.86366 16.1805 7.08516 14.9609L13.4961 8.55469C13.741 8.31166 14.1365 8.31306 14.3797 8.55781V8.55781Z" fill="#4F7396"/>
</svg>
