<svg width="40" height="40" viewBox="0 0 40 40" fill="none" xmlns="http://www.w3.org/2000/svg">
<rect x="1" y="1" width="38" height="38" rx="6.5" fill="white" stroke="#2076D2" stroke-width="2"/>
<path d="M20 18.125C18.7639 18.125 17.5555 17.7584 16.5277 17.0717C15.4999 16.3849 14.6988 15.4088 14.2258 14.2668C13.7527 13.1247 13.6289 11.8681 13.8701 10.6557C14.1113 9.44331 14.7065 8.32966 15.5806 7.45559C16.4547 6.58151 17.5683 5.98625 18.7807 5.74509C19.9931 5.50394 21.2497 5.62771 22.3918 6.10076C23.5338 6.5738 24.5099 7.37488 25.1967 8.40269C25.8834 9.4305 26.25 10.6389 26.25 11.875C26.25 13.5326 25.5915 15.1223 24.4194 16.2944C23.2473 17.4665 21.6576 18.125 20 18.125ZM20 8.125C19.2583 8.125 18.5333 8.34494 17.9166 8.75699C17.2999 9.16905 16.8193 9.75472 16.5355 10.4399C16.2516 11.1252 16.1774 11.8792 16.3221 12.6066C16.4668 13.334 16.8239 14.0022 17.3484 14.5267C17.8728 15.0511 18.541 15.4083 19.2684 15.5529C19.9958 15.6976 20.7498 15.6234 21.4351 15.3396C22.1203 15.0557 22.706 14.5751 23.118 13.9584C23.5301 13.3417 23.75 12.6167 23.75 11.875C23.75 10.8804 23.3549 9.92661 22.6517 9.22335C21.9484 8.52009 20.9946 8.125 20 8.125Z" fill="#2076D2"/>
<path d="M31.25 34.375H8.75C8.41848 34.375 8.10054 34.2433 7.86612 34.0089C7.6317 33.7745 7.5 33.4565 7.5 33.125V29.375C7.5 26.7228 8.55357 24.1793 10.4289 22.3039C12.3043 20.4286 14.8478 19.375 17.5 19.375H22.5C25.1522 19.375 27.6957 20.4286 29.5711 22.3039C31.4464 24.1793 32.5 26.7228 32.5 29.375V33.125C32.5 33.4565 32.3683 33.7745 32.1339 34.0089C31.8995 34.2433 31.5815 34.375 31.25 34.375ZM10 31.875H30V29.375C30 27.3859 29.2098 25.4782 27.8033 24.0717C26.3968 22.6652 24.4891 21.875 22.5 21.875H17.5C15.5109 21.875 13.6032 22.6652 12.1967 24.0717C10.7902 25.4782 10 27.3859 10 29.375V31.875Z" fill="#2076D2"/>
</svg>
