<svg width="1056" height="291" viewBox="0 0 1056 291" fill="none" xmlns="http://www.w3.org/2000/svg">
<rect x="2.5" y="2.5" width="246" height="246" rx="12.5" fill="white" stroke="#2076F2" stroke-width="5"/>
<path d="M116.538 52.1214L37.8613 201.193C34.3466 207.853 39.175 215.861 46.7052 215.861H68.9861C72.8432 215.861 76.3564 213.642 78.0147 210.16L116.239 129.889C119.898 122.206 130.871 122.313 134.379 130.067L170.531 209.982C172.15 213.561 175.714 215.861 179.642 215.861H201.988C209.47 215.861 214.302 207.945 210.882 201.29L134.276 52.2184C130.579 45.0237 120.314 44.9676 116.538 52.1214Z" fill="#2076F2" stroke="#2076F2" stroke-width="5"/>
<path d="M428.666 154L421.466 105.2H419.466L401.866 154H428.666ZM440.466 209L435.666 186.8H388.066L378.866 209H336.066L404.866 59H445.666L483.266 209H440.466ZM593.727 238.6C582.794 243.933 566.994 246.6 546.327 246.6C525.661 246.6 510.327 243.933 500.327 238.6C490.327 233.267 485.994 224.267 487.327 211.6C488.261 202.8 491.461 195.8 496.927 190.6C492.794 185.533 490.994 180.867 491.527 176.6C492.061 170.333 494.394 165.6 498.527 162.4C502.794 159.067 508.861 156.733 516.727 155.4V154.8C512.861 151.733 509.661 147.933 507.127 143.4C504.727 138.733 503.794 134.133 504.327 129.6C505.794 116.267 511.594 106.267 521.727 99.6C531.994 92.9333 545.661 89.6 562.727 89.6C580.461 89.6 593.394 92.8 601.527 99.2C605.794 93.6 611.594 90.4 618.927 89.6H627.327L625.127 111.8H616.727C614.194 111.8 612.794 113.067 612.527 115.6L612.327 116.4C613.127 120.667 613.261 125.067 612.727 129.6C610.061 155.867 590.594 169.133 554.327 169.4C552.327 169.4 549.794 169.333 546.727 169.2C543.661 169.067 541.261 169 539.527 169C537.794 168.867 535.927 168.933 533.927 169.2C532.061 169.333 530.661 169.8 529.727 170.6C528.794 171.4 528.261 172.533 528.127 174C527.994 175.067 528.861 176.267 530.727 177.6V177.8C537.127 176.867 544.794 176.4 553.727 176.4C574.394 176.4 589.594 179.067 599.327 184.4C609.194 189.6 613.461 198.667 612.127 211.6C610.794 224.4 604.661 233.4 593.727 238.6ZM551.127 199.8C537.527 199.8 530.394 203.267 529.727 210.2C529.327 214.067 530.727 216.733 533.927 218.2C537.261 219.8 542.261 220.6 548.927 220.6C562.661 220.6 569.861 217.133 570.527 210.2C570.927 206.467 569.461 203.8 566.127 202.2C562.794 200.6 557.794 199.8 551.127 199.8ZM568.727 120.4C566.461 117.733 563.527 116.4 559.927 116.4C556.327 116.4 553.061 117.733 550.127 120.4C547.327 122.933 545.727 126 545.327 129.6C545.061 133.2 546.061 136.333 548.327 139C550.594 141.533 553.527 142.8 557.127 142.8C560.861 142.8 564.127 141.467 566.927 138.8C569.861 136.133 571.461 133.067 571.727 129.6C572.127 126 571.127 122.933 568.727 120.4ZM768.529 151C766.662 168.333 758.529 182.933 744.129 194.8C729.862 206.533 713.796 212.4 695.929 212.4C677.929 212.4 662.996 206.533 651.129 194.8C639.262 182.933 634.262 168.333 636.129 151C637.329 139.533 641.462 129.133 648.529 119.8C655.729 110.333 664.596 103 675.129 97.8C685.796 92.4667 696.996 89.8 708.729 89.8C726.596 89.8 741.462 95.6667 753.329 107.4C765.196 119.133 770.262 133.667 768.529 151ZM687.729 134.8C682.796 139.2 679.996 144.6 679.329 151C678.662 157.4 680.329 162.867 684.329 167.4C688.329 171.8 693.529 174 699.929 174C706.329 174 711.996 171.8 716.929 167.4C721.862 162.867 724.662 157.4 725.329 151C725.996 144.6 724.329 139.2 720.329 134.8C716.329 130.267 711.129 128 704.729 128C698.329 128 692.662 130.267 687.729 134.8ZM823.366 209H782.566L794.566 93.2H832.166L830.566 109.4H831.766C840.7 96.3333 851.566 89.8 864.366 89.8L859.966 132.2H848.566C843.9 132.2 839.7 133.933 835.966 137.4C832.233 140.733 830.1 144.733 829.566 149.4L823.366 209ZM948.295 168.6L949.095 160.6H926.895C916.628 160.6 911.228 164 910.695 170.8C910.295 174.133 911.295 176.867 913.695 179C916.228 181.133 920.628 182.2 926.895 182.2C932.495 182.2 937.361 180.867 941.495 178.2C945.628 175.4 947.895 172.2 948.295 168.6ZM984.895 209H944.095L945.495 193.8L944.895 193.4C941.695 198.333 936.761 202.733 930.095 206.6C923.561 210.467 916.495 212.4 908.895 212.4C893.561 212.4 882.695 208.933 876.295 202C869.895 194.933 867.361 185.067 868.695 172.4C869.895 160.8 874.561 152 882.695 146C890.961 140 902.295 137 916.695 137H951.495L952.295 129.2C953.228 120.4 948.028 116 936.695 116C931.495 116 927.228 117.2 923.895 119.6C920.695 122 918.828 125.533 918.295 130.2H880.695C882.028 117 887.961 106.933 898.495 100C909.161 93.0667 923.161 89.6 940.495 89.6C958.095 89.6 971.628 92.9333 981.095 99.6C990.561 106.267 994.561 116.133 993.095 129.2L984.895 209Z" fill="#2176D2"/>
</svg>
